<svg width="20" height="20" viewBox="0 0 20 20" fill="none" xmlns="http://www.w3.org/2000/svg">
<path d="M9.098 6.61C9.16333 6.67533 9.24267 6.708 9.336 6.708H10.624C10.7173 6.708 10.7967 6.67533 10.862 6.61C10.9367 6.54467 10.974 6.46533 10.974 6.372V5.35C10.974 5.24733 10.9413 5.16333 10.876 5.098C10.8107 5.03267 10.7267 5 10.624 5H9.336C9.24267 5 9.16333 5.03267 9.098 5.098C9.03267 5.16333 9 5.24733 9 5.35V6.372C9 6.46533 9.03267 6.54467 9.098 6.61Z" fill="#8552F2"/>
<path d="M9.154 15.08C9.21933 15.1453 9.29867 15.178 9.392 15.178H10.582C10.6753 15.178 10.7547 15.1453 10.82 15.08C10.8853 15.0147 10.918 14.9353 10.918 14.842V8.234C10.918 8.14067 10.8853 8.06133 10.82 7.996C10.7547 7.93067 10.6753 7.898 10.582 7.898H9.392C9.29867 7.898 9.21933 7.93067 9.154 7.996C9.08867 8.052 9.056 8.13133 9.056 8.234V14.842C9.056 14.9353 9.08867 15.0147 9.154 15.08Z" fill="#8552F2"/>
<path fill-rule="evenodd" clip-rule="evenodd" d="M10 20C15.5228 20 20 15.5228 20 10C20 4.47715 15.5228 0 10 0C4.47715 0 0 4.47715 0 10C0 15.5228 4.47715 20 10 20ZM10 18.5C14.6944 18.5 18.5 14.6944 18.5 10C18.5 5.30558 14.6944 1.5 10 1.5C5.30558 1.5 1.5 5.30558 1.5 10C1.5 14.6944 5.30558 18.5 10 18.5Z" fill="#8552F2"/>
</svg>
